<mxfile host="app.diagrams.net" modified="2021-04-10T07:56:02.080Z" agent="5.0 (Windows NT 10.0; Win64; x64) AppleWebKit/537.36 (KHTML, like Gecko) Chrome/89.0.4389.114 Safari/537.36" etag="roha96zbl67gqM-Kqrk-" version="14.5.10" type="github">
  <diagram id="piDafpqhtRUU5qUU-vj8" name="Page-1">
    <mxGraphModel dx="1038" dy="580" grid="1" gridSize="10" guides="1" tooltips="1" connect="1" arrows="1" fold="1" page="1" pageScale="1" pageWidth="827" pageHeight="1169" math="0" shadow="0">
      <root>
        <mxCell id="0" />
        <mxCell id="1" parent="0" />
        <mxCell id="KZ4GfBk8rh8nMseQ3MGW-1" value="Spaccabolle" style="strokeWidth=1;shadow=0;dashed=0;align=center;html=1;shape=mxgraph.mockup.containers.window;align=left;verticalAlign=top;spacingLeft=8;strokeColor2=#008cff;strokeColor3=#c4c4c4;fontColor=#666666;mainText=;fontSize=17;labelBackgroundColor=none;" parent="1" vertex="1">
          <mxGeometry x="80" y="360" width="680" height="400" as="geometry" />
        </mxCell>
        <mxCell id="KZ4GfBk8rh8nMseQ3MGW-6" value="Nome Utente" style="strokeWidth=1;shadow=0;dashed=0;align=center;html=1;shape=mxgraph.mockup.text.textBox;fontColor=#666666;align=left;fontSize=17;spacingLeft=4;spacingTop=-3;strokeColor=#666666;mainText=" parent="1" vertex="1">
          <mxGeometry x="326" y="539" width="184" height="45" as="geometry" />
        </mxCell>
        <mxCell id="KZ4GfBk8rh8nMseQ3MGW-7" value="GIOCA" style="strokeWidth=1;shadow=0;dashed=0;align=center;html=1;shape=mxgraph.mockup.buttons.button;strokeColor=#666666;fontColor=#ffffff;mainText=;buttonStyle=round;fontSize=17;fontStyle=1;fillColor=#008cff;whiteSpace=wrap;" parent="1" vertex="1">
          <mxGeometry x="328" y="600" width="180" height="60" as="geometry" />
        </mxCell>
        <mxCell id="KZ4GfBk8rh8nMseQ3MGW-8" value="" style="rounded=0;whiteSpace=wrap;html=1;" parent="1" vertex="1">
          <mxGeometry x="90" y="400" width="660" height="60" as="geometry" />
        </mxCell>
        <mxCell id="KZ4GfBk8rh8nMseQ3MGW-9" value="&lt;h1&gt;SPACCABOLLE&lt;/h1&gt;" style="text;html=1;strokeColor=none;fillColor=none;align=center;verticalAlign=middle;whiteSpace=wrap;rounded=0;" parent="1" vertex="1">
          <mxGeometry x="310" y="420" width="220" height="20" as="geometry" />
        </mxCell>
        <mxCell id="KZ4GfBk8rh8nMseQ3MGW-10" value="&lt;h3&gt;INSERISCI IL TUO NOME&lt;/h3&gt;" style="text;html=1;strokeColor=none;fillColor=none;align=center;verticalAlign=middle;whiteSpace=wrap;rounded=0;" parent="1" vertex="1">
          <mxGeometry x="320" y="490" width="190" height="40" as="geometry" />
        </mxCell>
        <mxCell id="KZ4GfBk8rh8nMseQ3MGW-13" value="" style="verticalLabelPosition=bottom;shadow=0;dashed=0;align=center;html=1;verticalAlign=top;strokeWidth=1;shape=mxgraph.mockup.misc.progressBar;fillColor2=#FF3333;barPos=80;fillColor=#f8cecc;strokeColor=#b85450;" parent="1" vertex="1">
          <mxGeometry x="320" y="680" width="200" height="20" as="geometry" />
        </mxCell>
        <mxCell id="KZ4GfBk8rh8nMseQ3MGW-15" value="" style="verticalLabelPosition=bottom;shadow=0;dashed=0;align=center;html=1;verticalAlign=top;strokeWidth=1;shape=mxgraph.mockup.misc.help_icon;" parent="1" vertex="1">
          <mxGeometry x="700" y="414" width="32" height="32" as="geometry" />
        </mxCell>
        <mxCell id="KZ4GfBk8rh8nMseQ3MGW-16" value="Spaccabolle" style="strokeWidth=1;shadow=0;dashed=0;align=center;html=1;shape=mxgraph.mockup.containers.window;align=left;verticalAlign=top;spacingLeft=8;strokeColor2=#008cff;strokeColor3=#c4c4c4;fontColor=#666666;mainText=;fontSize=17;labelBackgroundColor=none;" parent="1" vertex="1">
          <mxGeometry x="80" y="800" width="680" height="400" as="geometry" />
        </mxCell>
        <mxCell id="KZ4GfBk8rh8nMseQ3MGW-17" value="" style="rounded=0;whiteSpace=wrap;html=1;" parent="1" vertex="1">
          <mxGeometry x="90" y="840" width="660" height="60" as="geometry" />
        </mxCell>
        <mxCell id="KZ4GfBk8rh8nMseQ3MGW-18" value="&lt;h1&gt;SPACCABOLLE&lt;/h1&gt;" style="text;html=1;strokeColor=none;fillColor=none;align=center;verticalAlign=middle;whiteSpace=wrap;rounded=0;" parent="1" vertex="1">
          <mxGeometry x="310" y="860" width="220" height="20" as="geometry" />
        </mxCell>
        <mxCell id="KZ4GfBk8rh8nMseQ3MGW-19" value="" style="verticalLabelPosition=bottom;shadow=0;dashed=0;align=center;html=1;verticalAlign=top;strokeWidth=1;shape=mxgraph.mockup.misc.help_icon;" parent="1" vertex="1">
          <mxGeometry x="700" y="854" width="32" height="32" as="geometry" />
        </mxCell>
        <mxCell id="KZ4GfBk8rh8nMseQ3MGW-20" value="NUOVA PARTITA" style="strokeWidth=1;shadow=0;dashed=0;align=center;html=1;shape=mxgraph.mockup.buttons.button;strokeColor=#666666;fontColor=#ffffff;mainText=;buttonStyle=round;fontSize=17;fontStyle=1;fillColor=#008cff;whiteSpace=wrap;" parent="1" vertex="1">
          <mxGeometry x="345" y="970" width="150" height="50" as="geometry" />
        </mxCell>
        <mxCell id="KZ4GfBk8rh8nMseQ3MGW-21" value="CARICA PARTITA" style="strokeWidth=1;shadow=0;dashed=0;align=center;html=1;shape=mxgraph.mockup.buttons.button;strokeColor=#666666;fontColor=#ffffff;mainText=;buttonStyle=round;fontSize=17;fontStyle=1;fillColor=#008cff;whiteSpace=wrap;" parent="1" vertex="1">
          <mxGeometry x="345" y="1040" width="150" height="50" as="geometry" />
        </mxCell>
        <mxCell id="KZ4GfBk8rh8nMseQ3MGW-25" value="" style="rounded=0;whiteSpace=wrap;html=1;" parent="1" vertex="1">
          <mxGeometry x="90" y="1150" width="660" height="40" as="geometry" />
        </mxCell>
        <mxCell id="KZ4GfBk8rh8nMseQ3MGW-26" value="" style="strokeColor=#999999;verticalLabelPosition=bottom;shadow=0;dashed=0;verticalAlign=top;strokeWidth=2;html=1;shape=mxgraph.mockup.misc.copyrightIcon;" parent="1" vertex="1">
          <mxGeometry x="100" y="1158" width="25" height="25" as="geometry" />
        </mxCell>
        <mxCell id="KZ4GfBk8rh8nMseQ3MGW-27" value="Gioco realizzato da : Elisa, Michele, Sofia, Yuri - Ingegneria e Scienze Informatiche Unibo" style="text;html=1;strokeColor=none;fillColor=none;align=center;verticalAlign=middle;whiteSpace=wrap;rounded=0;" parent="1" vertex="1">
          <mxGeometry x="132" y="1160" width="600" height="20" as="geometry" />
        </mxCell>
        <mxCell id="KZ4GfBk8rh8nMseQ3MGW-29" value="" style="html=1;verticalLabelPosition=bottom;align=center;labelBackgroundColor=#ffffff;verticalAlign=top;strokeWidth=2;strokeColor=#0080F0;shadow=0;dashed=0;shape=mxgraph.ios7.icons.user;" parent="1" vertex="1">
          <mxGeometry x="260" y="539" width="50" height="51" as="geometry" />
        </mxCell>
        <mxCell id="KZ4GfBk8rh8nMseQ3MGW-30" value="Spaccabolle" style="strokeWidth=1;shadow=0;dashed=0;align=center;html=1;shape=mxgraph.mockup.containers.window;align=left;verticalAlign=top;spacingLeft=8;strokeColor2=#008cff;strokeColor3=#c4c4c4;fontColor=#666666;mainText=;fontSize=17;labelBackgroundColor=none;" parent="1" vertex="1">
          <mxGeometry x="80" y="1240" width="680" height="400" as="geometry" />
        </mxCell>
        <mxCell id="KZ4GfBk8rh8nMseQ3MGW-31" value="" style="whiteSpace=wrap;html=1;aspect=fixed;" parent="1" vertex="1">
          <mxGeometry x="257" y="1280" width="350" height="350" as="geometry" />
        </mxCell>
        <mxCell id="KZ4GfBk8rh8nMseQ3MGW-32" value="" style="ellipse;whiteSpace=wrap;html=1;aspect=fixed;fillColor=#fff2cc;strokeColor=#d6b656;" parent="1" vertex="1">
          <mxGeometry x="260" y="1280" width="40" height="40" as="geometry" />
        </mxCell>
        <mxCell id="KZ4GfBk8rh8nMseQ3MGW-42" value="" style="ellipse;whiteSpace=wrap;html=1;aspect=fixed;fillColor=#fff2cc;strokeColor=#d6b656;" parent="1" vertex="1">
          <mxGeometry x="300" y="1280" width="40" height="40" as="geometry" />
        </mxCell>
        <mxCell id="KZ4GfBk8rh8nMseQ3MGW-43" value="" style="ellipse;whiteSpace=wrap;html=1;aspect=fixed;fillColor=#fff2cc;strokeColor=#d6b656;" parent="1" vertex="1">
          <mxGeometry x="280" y="1320" width="40" height="40" as="geometry" />
        </mxCell>
        <mxCell id="KZ4GfBk8rh8nMseQ3MGW-44" value="" style="ellipse;whiteSpace=wrap;html=1;aspect=fixed;fillColor=#d5e8d4;strokeColor=#82b366;" parent="1" vertex="1">
          <mxGeometry x="340" y="1280" width="40" height="40" as="geometry" />
        </mxCell>
        <mxCell id="KZ4GfBk8rh8nMseQ3MGW-45" value="" style="ellipse;whiteSpace=wrap;html=1;aspect=fixed;fillColor=#d5e8d4;strokeColor=#82b366;" parent="1" vertex="1">
          <mxGeometry x="320" y="1320" width="40" height="40" as="geometry" />
        </mxCell>
        <mxCell id="KZ4GfBk8rh8nMseQ3MGW-46" value="" style="ellipse;whiteSpace=wrap;html=1;aspect=fixed;fillColor=#dae8fc;strokeColor=#6c8ebf;" parent="1" vertex="1">
          <mxGeometry x="380" y="1280" width="40" height="40" as="geometry" />
        </mxCell>
        <mxCell id="KZ4GfBk8rh8nMseQ3MGW-47" value="" style="ellipse;whiteSpace=wrap;html=1;aspect=fixed;fillColor=#f8cecc;strokeColor=#b85450;" parent="1" vertex="1">
          <mxGeometry x="360" y="1320" width="40" height="40" as="geometry" />
        </mxCell>
        <mxCell id="KZ4GfBk8rh8nMseQ3MGW-48" value="" style="rounded=0;whiteSpace=wrap;html=1;" parent="1" vertex="1">
          <mxGeometry x="257" y="1580" width="353" height="50" as="geometry" />
        </mxCell>
        <mxCell id="KZ4GfBk8rh8nMseQ3MGW-49" value="" style="ellipse;whiteSpace=wrap;html=1;aspect=fixed;fillColor=#fff2cc;strokeColor=#d6b656;" parent="1" vertex="1">
          <mxGeometry x="260" y="1585" width="40" height="40" as="geometry" />
        </mxCell>
        <mxCell id="KZ4GfBk8rh8nMseQ3MGW-50" value="" style="ellipse;whiteSpace=wrap;html=1;aspect=fixed;fillColor=#ffe6cc;strokeColor=#d79b00;" parent="1" vertex="1">
          <mxGeometry x="305" y="1585" width="40" height="40" as="geometry" />
        </mxCell>
        <mxCell id="KZ4GfBk8rh8nMseQ3MGW-51" value="" style="ellipse;whiteSpace=wrap;html=1;aspect=fixed;fillColor=#dae8fc;strokeColor=#6c8ebf;" parent="1" vertex="1">
          <mxGeometry x="390" y="1350" width="40" height="40" as="geometry" />
        </mxCell>
        <mxCell id="KZ4GfBk8rh8nMseQ3MGW-52" value="" style="ellipse;whiteSpace=wrap;html=1;aspect=fixed;fillColor=#ffe6cc;strokeColor=#d79b00;" parent="1" vertex="1">
          <mxGeometry x="520" y="1360" width="40" height="40" as="geometry" />
        </mxCell>
        <mxCell id="KZ4GfBk8rh8nMseQ3MGW-53" value="" style="ellipse;whiteSpace=wrap;html=1;aspect=fixed;fillColor=#ffe6cc;strokeColor=#d79b00;" parent="1" vertex="1">
          <mxGeometry x="560" y="1360" width="40" height="40" as="geometry" />
        </mxCell>
        <mxCell id="KZ4GfBk8rh8nMseQ3MGW-54" value="" style="ellipse;whiteSpace=wrap;html=1;aspect=fixed;fillColor=#d5e8d4;strokeColor=#82b366;" parent="1" vertex="1">
          <mxGeometry x="550" y="1320" width="40" height="40" as="geometry" />
        </mxCell>
        <mxCell id="KZ4GfBk8rh8nMseQ3MGW-55" value="" style="ellipse;whiteSpace=wrap;html=1;aspect=fixed;fillColor=#d5e8d4;strokeColor=#82b366;" parent="1" vertex="1">
          <mxGeometry x="567" y="1280" width="40" height="40" as="geometry" />
        </mxCell>
        <mxCell id="KZ4GfBk8rh8nMseQ3MGW-56" value="" style="ellipse;whiteSpace=wrap;html=1;aspect=fixed;fillColor=#d5e8d4;strokeColor=#82b366;" parent="1" vertex="1">
          <mxGeometry x="305" y="1360" width="40" height="40" as="geometry" />
        </mxCell>
        <mxCell id="KZ4GfBk8rh8nMseQ3MGW-57" value="" style="ellipse;whiteSpace=wrap;html=1;aspect=fixed;fillColor=#f8cecc;strokeColor=#b85450;" parent="1" vertex="1">
          <mxGeometry x="420" y="1280" width="40" height="40" as="geometry" />
        </mxCell>
        <mxCell id="oDWWg5rYFZz55fTr9chn-5" value="" style="shape=or;whiteSpace=wrap;html=1;rotation=-90;" parent="1" vertex="1">
          <mxGeometry x="430" y="1530" width="20" height="80" as="geometry" />
        </mxCell>
        <mxCell id="oDWWg5rYFZz55fTr9chn-6" value="" style="endArrow=classic;html=1;" parent="1" edge="1">
          <mxGeometry width="50" height="50" relative="1" as="geometry">
            <mxPoint x="445" y="1560" as="sourcePoint" />
            <mxPoint x="495" y="1510" as="targetPoint" />
          </mxGeometry>
        </mxCell>
        <mxCell id="oDWWg5rYFZz55fTr9chn-7" value="PAUSA / IMPOSTAZIONI" style="strokeWidth=1;shadow=0;dashed=0;align=center;html=1;shape=mxgraph.mockup.buttons.button;strokeColor=#666666;fontColor=#ffffff;mainText=;buttonStyle=round;fontSize=17;fontStyle=1;fillColor=#008cff;whiteSpace=wrap;" parent="1" vertex="1">
          <mxGeometry x="100" y="1290" width="150" height="50" as="geometry" />
        </mxCell>
        <mxCell id="oDWWg5rYFZz55fTr9chn-8" value="" style="verticalLabelPosition=bottom;verticalAlign=top;html=1;shape=mxgraph.basic.rect;fillColor2=none;strokeWidth=1;size=20;indent=5;" parent="1" vertex="1">
          <mxGeometry x="620" y="1285" width="120" height="60" as="geometry" />
        </mxCell>
        <mxCell id="oDWWg5rYFZz55fTr9chn-9" value="" style="verticalLabelPosition=bottom;verticalAlign=top;html=1;shape=mxgraph.basic.rect;fillColor2=none;strokeWidth=1;size=20;indent=5;" parent="1" vertex="1">
          <mxGeometry x="620" y="1360" width="120" height="60" as="geometry" />
        </mxCell>
        <mxCell id="oDWWg5rYFZz55fTr9chn-10" value="" style="verticalLabelPosition=bottom;verticalAlign=top;html=1;shape=mxgraph.basic.rect;fillColor2=none;strokeWidth=1;size=20;indent=5;" parent="1" vertex="1">
          <mxGeometry x="620" y="1440" width="120" height="60" as="geometry" />
        </mxCell>
        <mxCell id="oDWWg5rYFZz55fTr9chn-11" value="NOME" style="text;strokeColor=none;fillColor=none;html=1;fontSize=24;fontStyle=1;verticalAlign=middle;align=center;" parent="1" vertex="1">
          <mxGeometry x="630" y="1295" width="100" height="40" as="geometry" />
        </mxCell>
        <mxCell id="oDWWg5rYFZz55fTr9chn-12" value="PUNTI" style="text;strokeColor=none;fillColor=none;html=1;fontSize=24;fontStyle=1;verticalAlign=middle;align=center;" parent="1" vertex="1">
          <mxGeometry x="630" y="1370" width="100" height="40" as="geometry" />
        </mxCell>
        <mxCell id="oDWWg5rYFZz55fTr9chn-15" value="TEMPO" style="text;strokeColor=none;fillColor=none;html=1;fontSize=24;fontStyle=1;verticalAlign=middle;align=center;" parent="1" vertex="1">
          <mxGeometry x="630" y="1450" width="100" height="40" as="geometry" />
        </mxCell>
        <mxCell id="oDWWg5rYFZz55fTr9chn-16" value="SALVA PARTITA" style="strokeWidth=1;shadow=0;dashed=0;align=center;html=1;shape=mxgraph.mockup.buttons.button;strokeColor=#666666;fontColor=#ffffff;mainText=;buttonStyle=round;fontSize=17;fontStyle=1;fillColor=#008cff;whiteSpace=wrap;" parent="1" vertex="1">
          <mxGeometry x="620" y="1520" width="120" height="50" as="geometry" />
        </mxCell>
      </root>
    </mxGraphModel>
  </diagram>
</mxfile>
